<svg width="1704" height="1600" viewBox="0 0 1704 1600" fill="none" xmlns="http://www.w3.org/2000/svg">
<g clip-path="url(#clip0)">
<rect x="369.674" y="374.119" width="75" height="136.944" rx="37.5" transform="rotate(-75 369.674 374.119)" fill="#8FFDE3" stroke="black" stroke-width="6"/>
<path d="M647.451 891.309L645.363 893.262L647.213 895.442L1400.21 1782.44L1401.35 1783.78L1403.08 1783.44L1809.58 1703.94L1814.98 1702.89L1811.16 1698.92L853.162 702.92L851.111 700.788L848.951 702.809L647.451 891.309Z" fill="#ACFD8F" stroke="black" stroke-width="6"/>
<rect x="645.454" y="946.859" width="372.866" height="349.59" rx="113" transform="rotate(-133.658 645.454 946.859)" fill="#FD8F8F" stroke="black" stroke-width="6"/>
<mask id="path-4-outside-1" maskUnits="userSpaceOnUse" x="762.006" y="371.769" width="131" height="310" fill="black">
<rect fill="white" x="762.006" y="371.769" width="131" height="310"/>
<path fill-rule="evenodd" clip-rule="evenodd" d="M786.117 383.074C769.972 392.146 764.239 412.588 773.311 428.732L810.725 495.313C809.824 497.5 809.107 499.798 808.596 502.194L781.817 627.89C777.26 649.28 790.906 670.315 812.296 674.872C833.686 679.429 854.721 665.783 859.278 644.393L886.057 518.697C886.984 514.348 887.158 510.013 886.667 505.828C887.308 499.238 886.009 492.393 882.52 486.183L831.775 395.879C822.703 379.735 802.261 374.002 786.117 383.074Z"/>
</mask>
<path fill-rule="evenodd" clip-rule="evenodd" d="M786.117 383.074C769.972 392.146 764.239 412.588 773.311 428.732L810.725 495.313C809.824 497.5 809.107 499.798 808.596 502.194L781.817 627.89C777.26 649.28 790.906 670.315 812.296 674.872C833.686 679.429 854.721 665.783 859.278 644.393L886.057 518.697C886.984 514.348 887.158 510.013 886.667 505.828C887.308 499.238 886.009 492.393 882.52 486.183L831.775 395.879C822.703 379.735 802.261 374.002 786.117 383.074Z" fill="#FDF28F"/>
<path d="M773.311 428.732L768.08 431.671H768.08L773.311 428.732ZM786.117 383.074L783.177 377.843V377.843L786.117 383.074ZM810.725 495.313L816.273 497.599L817.381 494.909L815.956 492.374L810.725 495.313ZM808.596 502.194L814.465 503.445L808.596 502.194ZM781.817 627.89L775.949 626.64L781.817 627.89ZM812.296 674.872L813.546 669.004H813.546L812.296 674.872ZM859.278 644.393L853.41 643.143L859.278 644.393ZM886.057 518.697L880.189 517.447L886.057 518.697ZM886.667 505.828L880.695 505.247L880.633 505.887L880.708 506.527L886.667 505.828ZM882.52 486.183L877.289 489.122L882.52 486.183ZM831.775 395.879L837.006 392.94L831.775 395.879ZM778.542 425.793C771.093 412.537 775.801 395.753 789.056 388.304L783.177 377.843C764.144 388.538 757.385 412.638 768.08 431.671L778.542 425.793ZM815.956 492.374L778.542 425.793L768.08 431.671L805.494 498.252L815.956 492.374ZM814.465 503.445C814.899 501.405 815.509 499.453 816.273 497.599L805.178 493.027C804.139 495.547 803.314 498.192 802.728 500.944L814.465 503.445ZM787.685 629.14L814.465 503.445L802.728 500.944L775.949 626.64L787.685 629.14ZM813.546 669.004C795.397 665.137 783.819 647.29 787.685 629.14L775.949 626.64C770.701 651.271 786.415 675.493 811.046 680.74L813.546 669.004ZM853.41 643.143C849.543 661.292 831.695 672.87 813.546 669.004L811.046 680.74C835.677 685.988 859.898 670.274 865.146 645.643L853.41 643.143ZM880.189 517.447L853.41 643.143L865.146 645.643L891.925 519.947L880.189 517.447ZM880.708 506.527C881.123 510.07 880.977 513.746 880.189 517.447L891.925 519.947C892.99 514.949 893.192 509.956 892.626 505.129L880.708 506.527ZM877.289 489.122C880.158 494.228 881.221 499.839 880.695 505.247L892.639 506.409C893.395 498.637 891.86 490.558 887.75 483.244L877.289 489.122ZM826.544 398.819L877.289 489.122L887.75 483.244L837.006 392.94L826.544 398.819ZM789.056 388.304C802.312 380.856 819.096 385.563 826.544 398.819L837.006 392.94C826.31 373.907 802.211 367.148 783.177 377.843L789.056 388.304Z" fill="black" mask="url(#path-4-outside-1)"/>
<rect x="404.5" y="130.5" width="389" height="696" rx="29.5" fill="#444444" stroke="#C4C4C4" stroke-width="5"/>
<rect x="419" y="171" width="360" height="614" fill="#C4C4C4"/>
<rect x="305.674" y="747.119" width="75" height="136.944" rx="37.5" transform="rotate(-75 305.674 747.119)" fill="#E08FFD" stroke="black" stroke-width="6"/>
<path d="M419.622 719C410.377 731.471 406.347 740.404 408.622 761" stroke="black" stroke-width="3"/>
<rect x="315.674" y="652.119" width="75" height="136.944" rx="37.5" transform="rotate(-75 315.674 652.119)" fill="#8FA1FD" stroke="black" stroke-width="6"/>
<path d="M435.622 624C426.377 636.471 422.347 645.404 424.622 666" stroke="black" stroke-width="3"/>
<rect x="305.674" y="557.119" width="75" height="136.944" rx="37.5" transform="rotate(-75 305.674 557.119)" fill="#8FFDE3" stroke="black" stroke-width="6"/>
<path d="M425.802 528C416.557 540.471 412.526 549.404 414.802 570" stroke="black" stroke-width="3"/>
</g>
<defs>
<clipPath id="clip0">
<rect width="1704" height="1600" fill="white"/>
</clipPath>
</defs>
</svg>
