<?xml version="1.0" encoding="utf-8"?>
<!-- Generator: Adobe Illustrator 22.1.0, SVG Export Plug-In . SVG Version: 6.00 Build 0)  -->
<svg version="1.1" id="Layer_1" xmlns="http://www.w3.org/2000/svg" xmlns:xlink="http://www.w3.org/1999/xlink" x="0px" y="0px"
	 viewBox="0 0 2500 931" style="enable-background:new 0 0 2500 931;" xml:space="preserve">
<style type="text/css">
	.st0{fill:#FCB712;}
	.st1{fill:#0076B6;}
</style>
<path id="layer1" class="st0" d="M1242.8,446.2c24.1-37.9,42.6-70.9,59-105.4c15.1-32,34.5-84.7,34.5-93.4c0-2.5-16.6-12.2-37-21.6
	c-36.1-16.9-91.6-51.1-91.6-56.4c0-1.6,6-0.6,13.5,1.9c34.2,12.5,84.7,8.2,119.5-10.7l16-8.5l5.3-26.7c3.4-15.4,6-43.3,6.3-66.5
	l0.6-39.8l7.5,11.3c14.1,20.4,31.7,61.8,37,86.2l5.3,24.1l15.7-8.2c35.1-19.4,70.2-63,85.9-107.9C1525,11.3,1530,0,1531,0
	c4.4,0,6.3,41.4,2.8,66.2c-6.6,48-23.8,85.9-56.1,123.9c-8.5,10-14.7,19.4-13.8,21c0.9,1.3,4.7,3.8,8.2,5
	c22,8.5,59.9,45.8,79.6,78.7c7.8,12.5,26,57.1,26,63c0,1.9-5-2.5-11-10.3c-12.5-16.6-35.4-34.2-55.8-43
	c-34.8-15.1-96.9-20.7-108.5-10c-3.1,2.8-13.8,15.4-24.1,28.2c-26.7,33.6-74.9,83.4-110.4,114.1c-16.6,14.4-32.3,27.3-34.5,28.5
	C1231.2,466.6,1235.6,458.1,1242.8,446.2L1242.8,446.2z"/>
<g id="layer2">
	<path class="st1" d="M645.1,927.9c-41.1-6-81.5-34.5-98.8-69.3c-12.2-24.5-16.9-56.4-12.2-85.6c7.5-48.6,42.3-83.1,102.9-101.9
		c36.7-11.6,78.4-17.9,123.9-18.5c18.8-0.3,35.1-1.3,35.7-2.2c3.8-3.4-0.6-28.8-6.9-39.5c-13.2-23.8-39.2-34.5-83.7-34.5
		c-36.7,0.3-74.3,9.7-110.4,27.6l-14.7,7.5l-6-10.3c-16-26.7-16.6-52.7-1.6-68.7c43.9-46.4,196-57.1,273.7-19.1
		c22.3,11,45.5,34.2,55.2,55.8c14.7,31.7,16.3,48.3,16.6,169.3c0.6,116,2.8,142,14.1,164.3c2.8,5,5,11,5,12.5
		c0,10-65.5,16.9-91.6,9.7c-15.1-4.4-30.4-17.2-36.1-30.7L806,884l-9.7,8.2C763,920,697.5,935.7,645.1,927.9L645.1,927.9z
		 M748.9,845.1c18.8-5.6,41.1-20.1,46.7-30.1c2.8-5.3,4.1-21.6,4.4-53.6v-46.4H780c-27.3,0-69,8.2-88.7,17.6
		c-36.4,17.2-50.5,53-33.6,86.5C670.8,844.8,711,856.4,748.9,845.1z M1738.5,926.6c-44.2-7.8-73.4-27.9-89.7-61.5
		c-15.7-31.7-15.7-34.5-16.9-271.6l-0.9-223.3l11-2.2c21.3-3.8,68,0.3,81.5,7.2c28.8,15.1,35.4,31.4,35.7,91.2l0.3,32h128.6v90.9
		h-128.6v102.5c0,97.2,0.3,103.2,6.6,115.7c12.2,25.4,41.7,34.8,76.8,24.8c10-2.8,23.8-8.8,30.4-12.9c11.6-7.5,12.2-7.8,16.6-2.2
		c7.5,10,17.2,31.4,19.1,42.6C1916.3,904.7,1822.3,941.3,1738.5,926.6L1738.5,926.6z M2060.6,926.6c-39.2-8.2-67.4-25.4-85.9-53.3
		c-15.7-23.2-22-45.5-22-78.4c0-38.3,8.5-59.3,32.3-83.4c37.9-37.9,110.4-59.3,201.9-59.3h30.4V640c0-23.2-12.2-42-34.5-53.6
		c-16-8.2-29.8-10.3-59.9-9.7c-32,0.3-65.9,8.5-98.1,23.5c-18.2,8.2-24.1,9.7-26.7,6.9c-7.8-9.4-16-32.9-16-46.4
		c0-12.9,1.6-16.9,11-27.3c25.1-27.6,77.5-42,152.1-42c56.8,0,84,5,118.2,21c25.7,12.2,47,32,57.4,53.6
		c15.4,32,16.6,40.8,17.6,152.1c1.3,148.3,2.2,158.4,18.2,195c5.6,12.9-69,21-94.7,10c-14.1-5.6-27.3-17.9-32-29.5l-3.8-8.8
		l-17.2,12.2C2170.3,924.1,2108.3,936.3,2060.6,926.6L2060.6,926.6z M2183.5,839.4c9.1-4.7,21-12.5,26-17.9l9.4-9.7l0.9-48.6
		l1.3-48.3h-22.6c-48,0-95,15.7-114.1,38.3c-26,30.1-12.9,78.1,24.8,92.2C2128.3,852.3,2162.8,849.5,2183.5,839.4z M2434.7,925
		c-16.6-7.5-26-22-26-40.1c0-27,17.9-44.5,45.5-44.5c48.3,0,63,61.8,20.4,84C2457.6,932.9,2451.6,932.9,2434.7,925z M2469.8,916.9
		c21.3-10,26-40.1,9.1-58c-29.5-30.7-75.6,6.6-55.8,44.5c4.7,9.4,19.4,18.2,30.4,18.5C2456.9,921.9,2464.2,919.7,2469.8,916.9
		L2469.8,916.9z"/>
	<path class="st1" d="M2436.9,885.8v-26.7h15.1c8.2,0,16.6,1.6,18.8,3.8c5.6,5.6,4.4,17.6-2.2,22c-6,3.8-6,3.8,0,12.2
		c7.2,10,7.5,12.2,1.6,12.2c-2.5,0-7.2-5-11-11c-3.4-6-7.8-11-9.7-11c-2.8,0-4.7,8.5-3.4,17.6c0.3,2.2-1.6,4.4-4.4,5.6
		C2437.5,911.9,2436.9,908.1,2436.9,885.8z M2463.5,873.3c0-9.1-15.7-10.7-18.2-1.9c-1.9,8.2,0.3,10.3,10.3,9.1
		C2461,879.9,2463.5,877.7,2463.5,873.3z M0.4,654.4V383.5l29.2-2.2c15.7-1.3,33.9-3.1,39.8-4.1s44.2-1.9,84.7-1.9
		c97.8-0.3,145.5,8.2,202.6,35.7c63,30.7,103.8,81.5,122.9,153c6.9,26.3,7.8,36.7,7.8,83.4c0.3,40.1-0.9,58.6-5,74.9
		c-26.3,106-92.8,169-204.8,193.2c-27.9,6.3-43,7.2-154,8.5L0.4,925.4L0.4,654.4L0.4,654.4z M243.4,829.4
		c57.7-16,97.2-58,110.4-118.2c7.5-34.8,6.6-100.7-1.9-132c-16-59.9-50.8-95-110.1-111c-14.7-4.1-32.6-5.6-64.9-5.6
		c-24.5,0-45.2,0.9-46.1,1.9c-1.3,1.3-2.8,290.7-1.9,367.8c0,5.6,2.2,6,48,4.1C205.8,835,232.1,832.5,243.4,829.4z"/>
	<path class="st1" d="M1093.5,922.5c-0.9-1.6-15.1-40.8-31.4-87.2c-52.7-150.2-74.9-207.3-110.1-283.5c-29.5-64-52.4-105.7-84-153.7
		c-60.5-91.6-123.2-150.5-196.9-184.7C618.5,189.1,563,178.4,499,180.9c-98.5,3.4-180.3,37.3-277.2,115.1c-11.6,9.1-20.7,9.1-20.7,0
		c0-6.9,47.3-52.4,77.8-74.3c78.1-56.1,164.6-83.1,268.7-83.1c149.3-0.3,271.9,51.7,379.4,160.9c90.6,91.9,151.5,201.9,221.1,400.7
		c12.5,36.1,23.8,64.3,25.1,62.7c1.3-1.3,12.5-37.6,24.8-80.9c14.4-50.2,27-87.8,35.1-104.4c22.6-46.1,58.6-74.6,109.8-86.9
		c21.3-5,43.6-6.3,43.6-2.2c-0.3,1.3-34.5,99.7-76.5,218.6l-76.2,216.4l-69.3,0.9C1126.5,925,1094.5,924.1,1093.5,922.5z
		 M1473.9,921.9c-16.9-2.8-30.4-9.4-38.3-18.2c-14.1-15.7-14.4-20.1-14.7-222.3V489.8l15.1,4.4c39.5,11.9,74.9,37.6,92.5,67.4
		c17.2,29.5,17.9,37.6,17.2,207l-0.9,154.9l-28.2,0.3C1501.2,924.1,1481.7,923.2,1473.9,921.9L1473.9,921.9z"/>
</g>
</svg>
